<?xml version="1.0" standalone="no"?>
<!DOCTYPE svg PUBLIC "-//W3C//DTD SVG 20010904//EN"
 "http://www.w3.org/TR/2001/REC-SVG-20010904/DTD/svg10.dtd">
<svg version="1.0" xmlns="http://www.w3.org/2000/svg"
 width="803.000000pt" height="920.000000pt" viewBox="0 0 803.000000 920.000000"
 preserveAspectRatio="xMidYMid meet">

<g transform="translate(0.000000,920.000000) scale(0.100000,-0.100000)"
fill="#000000" stroke="none">
<path d="M4965 8034 c-478 -71 -896 -417 -1126 -933 -123 -277 -179 -544 -179
-857 0 -206 30 -434 57 -434 16 0 16 -3 -2 95 -21 112 -29 397 -17 530 68 697
454 1272 1006 1499 74 31 222 65 327 77 227 25 503 -38 710 -161 295 -175 527
-459 664 -816 36 -91 55 -117 55 -73 0 30 -64 188 -118 289 -200 379 -512 646
-872 749 -182 51 -329 62 -505 35z"/>
<path d="M4615 7646 c-282 -92 -477 -321 -529 -621 -21 -117 -20 -170 4 -285
47 -231 203 -420 395 -479 353 -109 719 119 841 524 23 79 27 107 26 225 0
111 -4 147 -22 205 -67 214 -218 373 -407 430 -60 19 -252 19 -308 1z m306
-37 c82 -27 114 -43 169 -87 73 -58 125 -123 168 -208 68 -135 84 -355 37
-517 -73 -254 -243 -437 -475 -512 -39 -13 -86 -18 -160 -18 -92 0 -114 3
-175 28 -172 69 -290 198 -348 380 -102 320 49 711 341 882 121 71 316 94 443
52z"/>
<path d="M4603 7436 c-53 -17 -95 -47 -161 -116 -103 -108 -136 -205 -137
-410 0 -120 2 -140 22 -180 31 -62 115 -154 171 -188 46 -26 51 -27 202 -27
150 0 157 1 200 27 55 32 141 121 168 174 56 110 65 221 28 369 l-22 90 -34
-1 c-41 -1 -180 -38 -221 -60 -16 -8 -29 -12 -29 -9 0 13 65 132 88 162 19 26
29 32 48 27 13 -3 24 -3 24 0 0 21 -43 80 -84 115 l-47 41 -87 -1 c-48 0 -106
-6 -129 -13z m154 -528 c-42 -63 -165 -203 -180 -206 -28 -6 -20 22 26 84 73
99 145 170 158 157 9 -9 8 -18 -4 -35z m153 18 c0 -24 -193 -266 -212 -266
-40 0 28 102 161 243 37 39 51 46 51 23z"/>
<path d="M1673 7178 c-33 -37 -98 -148 -120 -208 -25 -65 -61 -238 -72 -336
l-7 -69 -28 55 c-16 30 -57 105 -91 167 -35 61 -89 172 -120 245 -31 73 -59
135 -61 137 -16 17 -80 -96 -105 -184 -22 -77 -17 -313 10 -457 11 -64 21
-121 21 -125 0 -15 -71 97 -117 185 -90 171 -193 332 -227 354 -16 10 -33 -9
-52 -58 -13 -34 -15 -62 -11 -122 11 -138 27 -255 48 -341 40 -159 163 -422
278 -594 115 -169 227 -375 242 -442 9 -40 14 -132 14 -275 1 -229 13 -371 46
-540 75 -386 264 -881 434 -1140 90 -137 327 -347 533 -473 37 -22 161 -87
276 -145 204 -102 344 -155 571 -217 76 -21 231 -44 298 -45 11 0 17 -8 17
-24 0 -31 4 -35 154 -150 l123 -95 6 -153 c4 -124 2 -155 -9 -164 -8 -6 -87
-33 -177 -59 -89 -26 -189 -56 -223 -66 l-60 -19 -22 -62 c-36 -106 -82 -295
-76 -312 3 -9 15 -16 26 -16 25 0 43 43 72 174 25 111 28 110 47 -24 15 -108
23 -130 49 -130 17 0 20 7 20 38 0 21 -5 64 -11 96 -6 32 -8 60 -6 63 3 2 26
-23 52 -56 45 -57 75 -74 90 -51 12 19 -7 52 -81 138 -41 48 -71 88 -67 89 17
5 363 73 373 73 6 0 10 -34 10 -87 0 -224 13 -435 28 -447 8 -6 33 -29 56 -51
22 -22 64 -58 91 -79 28 -22 64 -53 81 -68 35 -32 64 -29 64 7 0 21 -53 69
-132 120 -16 9 -28 20 -28 24 0 11 164 11 238 0 65 -11 75 -10 90 5 37 37 -37
63 -188 66 l-65 1 55 15 c63 17 94 42 84 68 -5 13 -14 17 -33 13 -43 -7 -206
-46 -224 -53 -16 -6 -17 14 -17 239 0 138 4 248 9 251 5 4 72 19 148 35 154
33 203 53 203 82 0 13 -60 67 -185 165 l-185 147 0 54 c0 44 3 53 18 53 41 0
142 72 142 101 0 6 -15 -1 -32 -14 -18 -13 -50 -32 -71 -42 l-37 -20 -23 27
c-22 26 -124 82 -182 100 -29 9 -88 17 -285 38 -357 38 -880 259 -1235 522
-127 94 -287 254 -350 349 -93 141 -230 450 -313 709 -126 390 -169 680 -152
1036 6 110 17 237 26 284 22 120 28 180 17 180 -9 0 -36 -103 -49 -187 -4 -24
-10 -43 -13 -43 -4 0 -15 17 -25 38 -33 69 -149 266 -228 386 -104 157 -213
385 -259 546 -21 71 -24 110 -10 110 5 0 17 25 26 55 14 49 46 95 66 95 33 0
59 -25 92 -88 21 -39 66 -111 102 -160 35 -49 67 -103 71 -118 21 -92 52 -164
72 -164 17 0 14 18 -17 100 -36 99 -50 173 -50 270 0 117 23 225 55 257 30 30
56 21 141 -54 52 -46 74 -74 109 -145 32 -64 44 -99 44 -132 0 -52 17 -96 37
-96 16 0 16 10 3 46 -8 20 -8 29 1 35 8 4 9 17 4 35 -18 73 -16 121 10 219 37
138 74 200 137 224 35 13 78 -18 78 -57 0 -35 30 -147 64 -242 15 -41 34 -95
42 -118 9 -24 24 -58 35 -75 10 -18 19 -37 19 -43 0 -7 -37 -14 -97 -18 -149
-11 -353 -57 -387 -88 -6 -4 -17 -8 -26 -8 -36 0 -37 -19 -3 -128 48 -150 125
-346 193 -487 32 -66 75 -158 97 -205 43 -92 176 -276 326 -450 143 -167 195
-217 316 -309 184 -140 171 -132 268 -142 49 -5 94 -11 101 -14 6 -2 12 2 12
10 0 15 -37 29 -127 46 -34 6 -75 21 -91 33 -140 102 -266 203 -309 249 l-53
56 0 75 c0 117 68 276 148 347 30 26 39 29 105 29 50 0 85 -6 116 -20 70 -32
69 -34 68 98 -1 175 26 264 110 353 61 66 124 104 229 140 144 49 169 51 232
22 30 -13 56 -22 59 -19 10 9 -84 69 -202 127 -65 32 -110 59 -98 59 11 0 87
-6 169 -14 161 -16 449 -32 501 -29 l31 2 -24 -42 c-52 -92 -69 -163 -69 -297
0 -121 1 -127 33 -192 66 -134 171 -195 319 -186 69 5 73 4 73 -16 1 -62 112
-257 195 -341 60 -61 165 -131 218 -146 107 -29 213 -46 236 -37 13 5 26 6 28
4 3 -3 12 -36 19 -73 26 -122 132 -310 229 -404 51 -50 48 -49 180 -105 79
-35 98 -39 163 -37 40 0 88 7 105 14 18 6 62 44 98 83 l66 70 37 -66 c64 -115
139 -168 237 -168 68 0 177 53 246 120 l52 50 -2 183 c-2 163 1 191 21 267 30
110 72 234 132 390 83 215 117 400 107 580 -6 102 -32 295 -44 313 -3 5 4 6
18 1 61 -20 64 -16 67 74 2 46 6 82 10 80 69 -37 92 -43 157 -42 129 1 172 48
162 178 -4 60 -13 84 -67 190 -35 67 -76 138 -92 159 l-30 37 31 35 c23 26 31
46 31 73 0 54 -22 79 -85 97 -45 14 -68 14 -137 5 -46 -6 -97 -12 -115 -15
-53 -6 -141 -56 -187 -105 -51 -55 -81 -109 -100 -183 -13 -49 -12 -53 8 -74
l21 -22 25 29 c16 19 70 49 150 83 121 53 129 55 233 59 l107 5 34 -51 c47
-71 120 -222 136 -279 18 -68 8 -136 -25 -164 -22 -19 -38 -23 -93 -23 -133 0
-263 93 -349 249 -35 65 -60 44 -27 -22 28 -54 104 -147 140 -170 l34 -22 0
-83 0 -83 -72 38 c-40 21 -95 61 -124 89 -86 86 -154 217 -154 296 0 18 -5 28
-15 28 -18 0 -18 -8 -4 -85 21 -117 110 -246 218 -320 39 -27 72 -57 75 -69
11 -46 36 -284 36 -352 0 -89 -24 -259 -48 -344 -11 -36 -49 -146 -86 -244
-37 -97 -81 -230 -99 -294 -30 -111 -32 -127 -32 -296 l-1 -180 -42 -42 c-23
-23 -72 -57 -109 -74 -58 -28 -76 -31 -128 -28 -76 5 -123 35 -167 106 -60 98
-73 115 -86 120 -8 2 -47 -30 -87 -71 -40 -42 -86 -80 -102 -84 -57 -16 -165
-9 -213 14 -25 11 -70 32 -100 46 -69 30 -139 104 -208 219 -69 114 -87 157
-107 253 -9 44 -20 84 -24 88 -4 4 -21 1 -37 -8 -16 -8 -35 -15 -43 -15 -12 0
-98 19 -191 41 -46 11 -139 73 -202 135 -94 92 -182 245 -194 337 -7 46 -8 48
-33 42 -167 -41 -299 20 -367 168 -26 57 -29 71 -28 172 1 121 20 195 75 292
16 29 29 59 29 67 0 22 -19 30 -36 15 -15 -13 -226 -7 -450 11 -62 6 -170 14
-240 19 -133 10 -148 14 -409 111 -70 26 -252 59 -440 81 -49 5 -96 12 -103
14 -18 7 -65 110 -113 251 -56 161 -65 207 -79 364 -9 105 -16 145 -34 179
-27 54 -36 58 -63 29z m4819 -305 c20 -18 23 -54 8 -84 -19 -35 -67 -50 -183
-58 -92 -6 -121 -12 -164 -34 -29 -15 -76 -36 -104 -48 -29 -11 -66 -30 -82
-41 l-30 -22 6 31 c18 92 98 195 185 239 40 20 80 30 160 38 114 12 174 6 204
-21z m-3824 -708 c134 -45 150 -54 94 -55 -100 0 -248 -114 -309 -235 -38 -76
-63 -174 -63 -251 l0 -60 -35 4 c-174 20 -369 -175 -393 -393 l-7 -60 -71 96
c-76 100 -81 113 -148 369 -28 109 -41 245 -31 326 8 68 51 121 128 159 78 38
396 116 507 125 191 14 217 12 328 -25z m937 -3639 c28 -7 71 -22 96 -33 l47
-21 -11 -43 c-6 -24 -12 -46 -14 -48 -3 -4 -193 147 -193 154 0 8 22 5 75 -9z
m329 -406 c47 -36 86 -68 86 -71 0 -3 -40 -17 -90 -31 l-90 -25 0 83 c0 45 -3
90 -7 100 -9 25 7 16 101 -56z"/>
<path d="M5936 4081 c-4 -5 -9 -58 -12 -118 -7 -131 -23 -217 -64 -348 -40
-126 -79 -203 -141 -281 -72 -91 -252 -259 -362 -339 -54 -38 -146 -105 -205
-148 -162 -119 -166 -121 -492 -215 -267 -78 -318 -86 -444 -78 -55 4 -116 8
-135 9 -61 4 -44 -19 22 -31 118 -22 261 -15 388 17 273 71 442 123 514 159
28 13 97 59 155 101 58 42 130 93 161 113 128 83 329 270 436 403 71 89 123
206 168 381 29 111 48 384 27 384 -6 0 -13 -4 -16 -9z"/>
</g>
</svg>
