<?xml version="1.0" encoding="UTF-8" standalone="no"?>
<!-- Created with Inkscape (http://www.inkscape.org/) -->

<svg
   version="1.1"
   id="svg2"
   xml:space="preserve"
   width="384"
   height="384"
   viewBox="0 0 384 384"
   sodipodi:docname="pigeon1.ai"
   xmlns:inkscape="http://www.inkscape.org/namespaces/inkscape"
   xmlns:sodipodi="http://sodipodi.sourceforge.net/DTD/sodipodi-0.dtd"
   xmlns="http://www.w3.org/2000/svg"
   xmlns:svg="http://www.w3.org/2000/svg"><defs
     id="defs6"><clipPath
       clipPathUnits="userSpaceOnUse"
       id="clipPath16"><path
         d="M 0,288 H 288 V 0 H 0 Z"
         id="path14" /></clipPath><clipPath
       clipPathUnits="userSpaceOnUse"
       id="clipPath24"><path
         d="M 60.7035,239.999 H 225.927 V 82.376 H 60.7035 Z"
         id="path22" /></clipPath></defs><sodipodi:namedview
     id="namedview4"
     pagecolor="#ffffff"
     bordercolor="#666666"
     borderopacity="1.0"
     inkscape:pageshadow="2"
     inkscape:pageopacity="0.0"
     inkscape:pagecheckerboard="0" /><g
     id="g8"
     inkscape:groupmode="layer"
     inkscape:label="pigeon1"
     transform="matrix(1.3333333,0,0,-1.3333333,0,384)"><g
       id="g10"><g
         id="g12"
         clip-path="url(#clipPath16)"><g
           id="g18"><g
             id="g20" /><g
             id="g72"><g
               clip-path="url(#clipPath24)"
               id="g70"><g
                 transform="translate(218.1833,192.5301)"
                 id="g28"><path
                   d="m 0,0 c -0.298,0.145 0.315,-4.287 0.315,-4.287 -0.477,0.111 -0.937,0.239 -1.363,0.375 -8.906,2.83 -8.361,10.696 -8.361,10.696 1.432,1.381 6.554,3.392 6.554,3.392 1.619,0.119 3.75,0.196 5.224,0.818 0,0 7.943,-7.244 4.517,-11.403 C 5.923,-1.577 2.855,-1.406 0,0"
                   style="fill:#fcd888;fill-opacity:1;fill-rule:nonzero;stroke:none"
                   id="path26" /></g><g
                 transform="translate(190.9794,211.2711)"
                 id="g32"><path
                   d="m 0,0 c 0,12.255 -7.491,18.988 -16.073,18.988 -8.583,0 -18.528,-8.769 -18.938,-18.988 -0.383,-9.545 4.373,-16.278 13.739,-17.582 C -10.27,-19.116 0,-11.037 0,0 m 17.25,-76.805 c -1.517,-1.219 -3.682,-2.276 -6.341,-1.79 -5.463,0.989 -7.244,6.315 -7.244,6.315 0,0 -3.367,-7.056 -12.239,-4.133 -10.235,3.366 -11.411,17.693 -11.411,17.693 -14.386,-4.798 -19.023,14.718 -19.023,14.718 0,0 -4.934,-2.326 -8.053,0.477 -7.892,7.091 -2.395,16.33 -0.222,19.355 l 0.009,0.009 c 0.23,0.323 0.426,0.571 0.562,0.741 v 0.009 c -0.545,8.948 0.034,23.019 6.963,34.499 11.096,18.391 25.661,19.448 41.189,16.218 18.307,-3.818 25.755,-22.482 26.079,-31.03 l 0.034,-0.196 c -0.468,-0.077 -0.954,-0.171 -1.431,-0.273 -2.617,-0.554 -3.623,-0.205 -5.455,-1.568 -3.937,-2.923 -3.221,-6.682 -3.221,-6.682 0.042,0.154 0.162,0.315 0.349,0.486 0,0 -0.545,-7.866 8.361,-10.696 0,0 1.662,-8.94 0.502,-16.551 -1.159,-7.602 -5.292,-18.195 -6.945,-22.158 -1.654,-3.972 0,-12.741 0,-12.741 0,0 -0.878,-1.441 -2.463,-2.702"
                   style="fill:#e7e8e5;fill-opacity:1;fill-rule:nonzero;stroke:none"
                   id="path30" /></g><g
                 transform="translate(77.6212,164.2353)"
                 id="g36"><path
                   d="m 0,0 c 0,0 -0.119,4.287 -4.713,11.02 -3.426,5.019 -8.352,11.871 -10.764,20.752 0,0 1.193,6.724 3.009,7.193 1.619,0.409 3.553,-3.46 3.945,-4.287 0.043,-0.102 0.069,-0.153 0.069,-0.153 0.767,-1.798 2.233,-4.398 3.468,-4.986 0.069,-0.043 0.128,-0.068 0.196,-0.085 0,0 -0.852,11.258 1.892,12.255 2.02,0.733 6.094,-4.15 6.094,-4.15 0.92,-1.577 1.713,-2.727 2.207,-3.273 H 5.429 C 5.446,32.641 5.625,31.124 6.051,29.94 L 6.579,28.082 C 5.028,27.664 3.477,27.127 1.952,26.471 c 0,0 3.826,-14.522 12.579,-27.766 1.142,-1.73 2.369,-3.444 3.69,-5.097 2.029,-2.557 4.27,-4.977 6.733,-7.133 0,0 -4.253,18.63 11.011,16.798 0,0 -4.253,14.906 15.562,15.834 v 0.009 c -1.653,0.963 -4.184,2.352 -7.355,3.801 -0.682,0.315 -1.389,0.622 -2.122,0.938 0.307,-0.009 8.369,-0.162 15.4,-0.981 6.861,-0.792 8.497,-0.068 8.625,-0.008 -2.173,-3.026 -7.67,-12.264 0.222,-19.355 3.119,-2.804 8.054,-0.477 8.054,-0.477 0,0 4.636,-19.517 19.022,-14.718 0,0 1.176,-14.327 11.411,-17.693 8.872,-2.923 12.239,4.133 12.239,4.133 0,0 1.781,-5.326 7.244,-6.315 2.659,-0.486 4.824,0.571 6.341,1.79 0.093,-0.75 5.233,-45.528 -54.365,-47.965 -0.418,-1.398 -1.321,-3.085 -2.319,-3.707 -0.485,-0.299 -1.082,-0.426 -1.679,-0.418 -0.954,0.009 -1.909,0.367 -2.36,0.895 -1.739,2.045 -2.054,4.27 -7.705,4.585 -0.588,0.034 -1.44,0.094 -2.514,0.205 -9.17,0.988 -34.414,5.804 -49.848,28.882 C -1.253,-30.749 -1.347,-11.591 0,0"
                   style="fill:#c8c4c3;fill-opacity:1;fill-rule:nonzero;stroke:none"
                   id="path34" /></g><g
                 transform="translate(184.2977,216.9727)"
                 id="g40"><path
                   d="m 0,0 c 5.352,-13.789 -7.713,-18.281 -11.105,-18.196 -3.383,0.086 -11.343,2.02 -11.326,11.583 0.017,10.261 6.622,14.607 11.454,14.633 4.355,0.017 7.074,-2.225 7.074,-2.225 C -6.878,3.239 -9.051,0.153 -10.406,-2.932 -6.699,-0.835 -3.281,-0.077 0,0"
                   style="fill:#231f20;fill-opacity:1;fill-rule:nonzero;stroke:none"
                   id="path38" /></g><g
                 transform="translate(129.1484,183.3513)"
                 id="g44"><path
                   d="m 0,0 v -0.009 c -19.815,-0.928 -15.562,-15.834 -15.562,-15.834 -15.264,1.832 -11.011,-16.798 -11.011,-16.798 -2.463,2.156 -4.705,4.576 -6.733,7.133 0,0 0.017,14.991 13.091,14.045 0,0 -2.37,15.008 12.86,15.264 C -4.185,2.352 -1.653,0.963 0,0"
                   style="fill:#050505;fill-opacity:1;fill-rule:nonzero;stroke:none"
                   id="path42" /></g><g
                 transform="translate(119.6714,188.0898)"
                 id="g48"><path
                   d="m 0,0 c 0.733,-0.315 1.44,-0.622 2.122,-0.937 -15.23,-0.256 -12.86,-15.264 -12.86,-15.264 -13.074,0.946 -13.091,-14.045 -13.091,-14.045 -1.321,1.653 -2.548,3.366 -3.69,5.096 0,0 -4.236,16.721 -1.227,21.536 3.008,4.824 11.386,5.676 23.624,5.591 V 1.986 C -3.307,1.347 -1.594,0.682 -0.009,0 Z"
                   style="fill:#c8c4c3;fill-opacity:1;fill-rule:nonzero;stroke:none"
                   id="path46" /></g><g
                 transform="translate(95.8339,193.6977)"
                 id="g52"><path
                   d="m 0,0 c 6.699,-0.136 13.176,-1.696 18.715,-3.622 v -0.009 c -12.238,0.086 -20.616,-0.767 -23.624,-5.59 -3.008,-4.816 1.227,-21.537 1.227,-21.537 -8.752,13.244 -12.579,27.767 -12.579,27.767 1.526,0.656 3.077,1.193 4.628,1.61 C -7.773,-0.315 -3.852,0.077 0,0"
                   style="fill:#050505;fill-opacity:1;fill-rule:nonzero;stroke:none"
                   id="path50" /></g><g
                 transform="translate(95.8339,193.6977)"
                 id="g56"><path
                   d="m 0,0 c -3.852,0.077 -7.773,-0.315 -11.633,-1.381 l -0.529,1.858 c -0.426,1.185 -0.605,2.702 -0.622,4.347 -0.008,0.843 0.026,1.721 0.094,2.625 0,0 2.267,8.446 5.275,8.463 C -5.991,15.92 -4.9,13.176 -4.9,13.176 -3.648,5.437 -0.187,0.281 0,0"
                   style="fill:#c8c4c3;fill-opacity:1;fill-rule:nonzero;stroke:none"
                   id="path54" /></g><g
                 transform="translate(90.4817,212.6603)"
                 id="g60"><path
                   d="m 0,0 c -0.017,-2.054 0.162,-3.989 0.452,-5.787 0,0 -1.091,2.744 -2.514,2.736 -3.009,-0.017 -5.276,-8.463 -5.276,-8.463 C -6.963,-6.392 -5.548,-0.929 -5.224,0 -4.355,2.489 0.077,11.122 0,0"
                   style="fill:#050505;fill-opacity:1;fill-rule:nonzero;stroke:none"
                   id="path58" /></g><g
                 transform="translate(76.5474,210.7939)"
                 id="g64"><path
                   d="m 0,0 c 1.312,-3.52 2.923,-6.707 4.27,-9 0,0 -4.074,4.884 -6.094,4.151 -2.744,-0.997 -1.892,-12.256 -1.892,-12.256 -0.068,0.017 -0.128,0.043 -0.196,0.086 C -5.335,-12.503 -6.724,-5.957 -5.463,0 -3.247,10.449 -2.216,5.932 0,0"
                   style="fill:#050505;fill-opacity:1;fill-rule:nonzero;stroke:none"
                   id="path62" /></g><g
                 transform="translate(69.0987,198.9135)"
                 id="g68"><path
                   d="M 0,0 C -0.392,0.827 -2.327,4.696 -3.946,4.287 -5.761,3.818 -6.954,-2.906 -6.954,-2.906 -7.773,0.119 -8.301,3.383 -8.386,6.886 -8.693,20.352 -1.099,2.599 0,0"
                   style="fill:#050505;fill-opacity:1;fill-rule:nonzero;stroke:none"
                   id="path66" /></g></g></g></g><g
           id="g74"
           transform="translate(144.2674,187.8597)"><path
             d="M 0,0 C -0.545,8.949 0.034,23.019 6.963,34.499 18.059,52.891 32.624,53.948 48.152,50.718 66.459,46.899 73.907,28.235 74.231,19.687"
             style="fill:none;stroke:#231f20;stroke-width:1;stroke-linecap:round;stroke-linejoin:round;stroke-miterlimit:10;stroke-dasharray:none;stroke-opacity:1"
             id="path76" /></g><g
           id="g78"
           transform="translate(145.3242,178.9367)"><path
             d="M 0,0 C 0,0 -0.733,3.528 -1.057,8.915"
             style="fill:none;stroke:#231f20;stroke-width:1;stroke-linecap:round;stroke-linejoin:round;stroke-miterlimit:10;stroke-dasharray:none;stroke-opacity:1"
             id="path80" /></g><g
           id="g82"
           transform="translate(143.6964,187.1012)"><path
             d="m 0,0 c -2.173,-3.025 -7.67,-12.264 0.222,-19.355 3.119,-2.804 8.053,-0.477 8.053,-0.477 0,0 4.637,-19.517 19.023,-14.718 0,0 1.176,-14.327 11.411,-17.693 8.872,-2.923 12.239,4.133 12.239,4.133 0,0 1.781,-5.326 7.244,-6.315 2.659,-0.486 4.824,0.571 6.341,1.79 1.585,1.261 2.463,2.702 2.463,2.702 0,0 -1.654,8.769 0,12.741 1.653,3.963 5.786,14.556 6.945,22.158 1.159,7.611 -0.502,16.551 -0.502,16.551"
             style="fill:none;stroke:#231f20;stroke-width:1;stroke-linecap:round;stroke-linejoin:round;stroke-miterlimit:10;stroke-dasharray:none;stroke-opacity:1"
             id="path84" /></g><g
           id="g86"
           transform="translate(144.4719,188.1069)"><path
             d="m 0,0 c 0,0 -0.077,-0.085 -0.205,-0.247 v -0.009 c -0.136,-0.17 -0.332,-0.417 -0.562,-0.741"
             style="fill:none;stroke:#231f20;stroke-width:1;stroke-linecap:round;stroke-linejoin:round;stroke-miterlimit:10;stroke-dasharray:none;stroke-opacity:1"
             id="path88" /></g><g
           id="g90"
           transform="translate(155.9688,211.2711)"><path
             d="M 0,0 C -0.384,-9.545 4.372,-16.278 13.738,-17.582 24.741,-19.116 35.011,-11.037 35.011,0 35.011,12.255 27.519,18.988 18.937,18.988 10.355,18.988 0.409,10.219 0,0 Z"
             style="fill:none;stroke:#231f20;stroke-width:1;stroke-linecap:round;stroke-linejoin:round;stroke-miterlimit:10;stroke-dasharray:none;stroke-opacity:1"
             id="path92" /></g><g
           id="g94"
           transform="translate(173.3207,224.9924)"><path
             d="m 0,0 c -4.832,-0.026 -11.437,-4.372 -11.454,-14.633 -0.017,-9.562 7.943,-11.497 11.326,-11.582 3.392,-0.086 16.457,4.406 11.105,18.195 -3.281,-0.076 -6.699,-0.835 -10.406,-2.931 1.355,3.085 3.528,6.17 6.503,8.727 0,0 -2.719,2.241 -7.074,2.224 z"
             style="fill:none;stroke:#231f20;stroke-width:1;stroke-linecap:round;stroke-linejoin:round;stroke-miterlimit:10;stroke-dasharray:none;stroke-opacity:1"
             id="path96" /></g><g
           id="g98"
           transform="translate(153.8638,86.5013)"><path
             d="m 0,0 c 59.598,2.437 54.459,47.215 54.365,47.965 v 0.008"
             style="fill:none;stroke:#231f20;stroke-width:1;stroke-linecap:round;stroke-linejoin:round;stroke-miterlimit:10;stroke-dasharray:none;stroke-opacity:1"
             id="path100" /></g><g
           id="g102"
           transform="translate(143.7049,187.1098)"><path
             d="M 0,0 -0.009,-0.009 C -0.136,-0.068 -1.773,-0.793 -8.633,0 -15.664,0.818 -23.727,0.972 -24.034,0.98"
             style="fill:none;stroke:#231f20;stroke-width:1;stroke-linecap:round;stroke-linejoin:round;stroke-miterlimit:10;stroke-dasharray:none;stroke-opacity:1"
             id="path104" /></g><g
           id="g106"
           transform="translate(131.2961,182.0303)"><path
             d="m 0,0 c 0,0 -0.767,0.511 -2.148,1.321 -1.653,0.963 -4.184,2.352 -7.355,3.801 -0.681,0.315 -1.389,0.622 -2.122,0.938 h -0.008 c -1.585,0.681 -3.298,1.346 -5.114,1.985 -5.539,1.926 -12.017,3.486 -18.715,3.622 -3.852,0.077 -7.773,-0.315 -11.633,-1.38 -1.552,-0.418 -3.103,-0.955 -4.628,-1.611 0,0 3.826,-14.522 12.579,-27.766 1.142,-1.731 2.369,-3.444 3.69,-5.097 2.029,-2.557 4.27,-4.977 6.733,-7.133 4.074,-3.571 8.753,-6.409 14.062,-7.901"
             style="fill:none;stroke:#231f20;stroke-width:1;stroke-linecap:round;stroke-linejoin:round;stroke-miterlimit:10;stroke-dasharray:none;stroke-opacity:1"
             id="path108" /></g><g
           id="g110"
           transform="translate(92.1521,162.9399)"><path
             d="m 0,0 c 0,0 -4.236,16.721 -1.227,21.536 3.008,4.824 11.386,5.676 23.624,5.591"
             style="fill:none;stroke:#231f20;stroke-width:1;stroke-linecap:round;stroke-linejoin:round;stroke-miterlimit:10;stroke-dasharray:none;stroke-opacity:1"
             id="path112" /></g><g
           id="g114"
           transform="translate(95.8424,157.8434)"><path
             d="m 0,0 c 0,0 0.017,14.991 13.091,14.045 0,0 -2.37,15.008 12.86,15.264"
             style="fill:none;stroke:#231f20;stroke-width:1;stroke-linecap:round;stroke-linejoin:round;stroke-miterlimit:10;stroke-dasharray:none;stroke-opacity:1"
             id="path116" /></g><g
           id="g118"
           transform="translate(102.5752,150.7101)"><path
             d="m 0,0 c 0,0 -4.253,18.63 11.011,16.798 0,0 -4.253,14.906 15.562,15.835"
             style="fill:none;stroke:#231f20;stroke-width:1;stroke-linecap:round;stroke-linejoin:round;stroke-miterlimit:10;stroke-dasharray:none;stroke-opacity:1"
             id="path120" /></g><g
           id="g122"
           transform="translate(79.5729,174.7947)"><path
             d="m 0,0 c 0,0 -1.202,-4.108 -1.952,-10.559 -1.346,-11.591 -1.252,-30.75 9.818,-47.292 15.435,-23.079 40.678,-27.894 49.849,-28.883 1.073,-0.111 1.926,-0.17 2.514,-0.204 5.65,-0.316 5.965,-2.54 7.704,-4.585 0.452,-0.529 1.406,-0.887 2.361,-0.895 0.596,-0.009 1.193,0.119 1.679,0.417 0.997,0.622 1.9,2.31 2.318,3.708"
             style="fill:none;stroke:#231f20;stroke-width:1;stroke-linecap:round;stroke-linejoin:round;stroke-miterlimit:10;stroke-dasharray:none;stroke-opacity:1"
             id="path124" /></g><g
           id="g126"
           transform="translate(149.8667,82.3764)"><path
             d="m 0,0 v -4.457 -7.475 -17.505 c 0,0 9.375,1.304 10.474,2.872"
             style="fill:none;stroke:#231f20;stroke-width:2;stroke-linecap:round;stroke-linejoin:round;stroke-miterlimit:10;stroke-dasharray:none;stroke-opacity:1"
             id="path128" /></g><g
           id="g130"
           transform="translate(161.4999,51.4397)"><path
             d="m 0,0 c -0.818,0.682 -11.633,1.5 -11.633,1.5 0,0 6.707,-5.267 9.306,-4.926"
             style="fill:none;stroke:#231f20;stroke-width:2;stroke-linecap:round;stroke-linejoin:round;stroke-miterlimit:10;stroke-dasharray:none;stroke-opacity:1"
             id="path132" /></g><g
           id="g134"
           transform="translate(156.8296,72.3028)"><path
             d="m 0,0 -6.963,5.616 -12.579,10.142 -0.009,0.009"
             style="fill:none;stroke:#231f20;stroke-width:2;stroke-linecap:round;stroke-linejoin:round;stroke-miterlimit:10;stroke-dasharray:none;stroke-opacity:1"
             id="path136" /></g><g
           id="g138"
           transform="translate(139.3414,58.8202)"><path
             d="m 0,0 c -0.886,1.704 -5.531,7.346 -5.531,7.346 l 16.056,4.279 6.963,1.858"
             style="fill:none;stroke:#231f20;stroke-width:2;stroke-linecap:round;stroke-linejoin:round;stroke-miterlimit:10;stroke-dasharray:none;stroke-opacity:1"
             id="path140" /></g><g
           id="g142"
           transform="translate(135.9835,55.6072)"><path
             d="m 0,0 c 0.648,0.852 -2.173,10.559 -2.173,10.559 0,0 -3.162,-5.974 -2.548,-9.46"
             style="fill:none;stroke:#231f20;stroke-width:2;stroke-linecap:round;stroke-linejoin:round;stroke-miterlimit:10;stroke-dasharray:none;stroke-opacity:1"
             id="path144" /></g><g
           id="g146"
           transform="translate(95.8424,193.6891)"><path
             d="m 0,0 -0.009,0.009 c -0.187,0.281 -3.647,5.437 -4.9,13.175 -0.29,1.799 -0.469,3.733 -0.452,5.787 0.077,11.122 -4.355,2.489 -5.224,0 -0.324,-0.929 -1.739,-6.392 -2.114,-11.514 -0.068,-0.903 -0.102,-1.781 -0.093,-2.625 0.017,-1.645 0.196,-3.162 0.622,-4.346"
             style="fill:none;stroke:#231f20;stroke-width:1;stroke-linecap:round;stroke-linejoin:round;stroke-miterlimit:10;stroke-dasharray:none;stroke-opacity:1"
             id="path148" /></g><g
           id="g150"
           transform="translate(69.1669,198.7601)"><path
             d="M 0,0 C 0.767,-1.798 2.233,-4.398 3.469,-4.986 3.537,-5.028 3.597,-5.054 3.665,-5.071"
             style="fill:none;stroke:#231f20;stroke-width:1;stroke-linecap:round;stroke-linejoin:round;stroke-miterlimit:10;stroke-dasharray:none;stroke-opacity:1"
             id="path152" /></g><g
           id="g154"
           transform="translate(77.6212,164.2353)"><path
             d="m 0,0 c 0,0 -0.119,4.287 -4.713,11.02 -3.426,5.019 -8.352,11.871 -10.764,20.752 -0.818,3.025 -1.346,6.29 -1.432,9.792 -0.306,13.466 7.287,-4.286 8.386,-6.886"
             style="fill:none;stroke:#231f20;stroke-width:1;stroke-linecap:round;stroke-linejoin:round;stroke-miterlimit:10;stroke-dasharray:none;stroke-opacity:1"
             id="path156" /></g><g
           id="g158"
           transform="translate(74.8088,188.1069)"><path
             d="m 0,0 c 0,0 -1.099,2.258 -2.173,5.667 -1.423,4.517 -2.813,11.063 -1.551,17.02 2.216,10.449 3.247,5.932 5.463,0 1.312,-3.52 2.923,-6.707 4.269,-9 0.921,-1.576 1.713,-2.727 2.208,-3.272"
             style="fill:none;stroke:#231f20;stroke-width:1;stroke-linecap:round;stroke-linejoin:round;stroke-miterlimit:10;stroke-dasharray:none;stroke-opacity:1"
             id="path160" /></g><g
           id="g162"
           transform="translate(62.1443,196.0073)"><path
             d="M 0,0 C 0,0 1.193,6.724 3.008,7.193 4.628,7.602 6.562,3.733 6.954,2.906 6.997,2.804 7.023,2.753 7.023,2.753"
             style="fill:none;stroke:#231f20;stroke-width:1;stroke-linecap:round;stroke-linejoin:round;stroke-miterlimit:10;stroke-dasharray:none;stroke-opacity:1"
             id="path164" /></g><g
           id="g166"
           transform="translate(72.8316,193.6891)"><path
             d="m 0,0 c 0,0 -0.852,11.258 1.892,12.255 2.02,0.733 6.094,-4.15 6.094,-4.15"
             style="fill:none;stroke:#231f20;stroke-width:1;stroke-linecap:round;stroke-linejoin:round;stroke-miterlimit:10;stroke-dasharray:none;stroke-opacity:1"
             id="path168" /></g><g
           id="g170"
           transform="translate(83.1438,201.1464)"><path
             d="M 0,0 C 0,0 2.267,8.446 5.275,8.463 6.699,8.471 7.79,5.727 7.79,5.727"
             style="fill:none;stroke:#231f20;stroke-width:1;stroke-linecap:round;stroke-linejoin:round;stroke-miterlimit:10;stroke-dasharray:none;stroke-opacity:1"
             id="path172" /></g><g
           id="g174"
           transform="translate(172.8008,204.8622)"><path
             d="M 0,0 4.338,3.315"
             style="fill:none;stroke:#ffffff;stroke-width:1.5;stroke-linecap:round;stroke-linejoin:round;stroke-miterlimit:10;stroke-dasharray:none;stroke-opacity:1"
             id="path176" /></g><g
           id="g178"
           transform="translate(173.3718,202.6208)"><path
             d="M 0,0 5.94,4.534"
             style="fill:none;stroke:#ffffff;stroke-width:1.5;stroke-linecap:round;stroke-linejoin:round;stroke-miterlimit:10;stroke-dasharray:none;stroke-opacity:1"
             id="path180" /></g><g
           id="g182"
           transform="translate(208.7744,199.314)"><path
             d="m 0,0 c -0.187,-0.17 -0.307,-0.332 -0.349,-0.486 0,0 -0.716,3.759 3.221,6.682 C 4.704,7.559 5.71,7.21 8.327,7.764 8.804,7.866 9.29,7.96 9.758,8.037 11.872,8.369 13.73,8.275 13.5,6.204 13.397,5.216 12.716,4.602 11.778,4.21 10.304,3.588 8.173,3.511 6.554,3.392 6.554,3.392 1.432,1.381 0,0 Z"
             style="fill:none;stroke:#231f20;stroke-width:1;stroke-linecap:round;stroke-linejoin:round;stroke-miterlimit:10;stroke-dasharray:none;stroke-opacity:1"
             id="path184" /></g><g
           id="g186"
           transform="translate(220.5525,203.5241)"><path
             d="m 0,0 c 0,0 7.943,-7.244 4.517,-11.403 -0.963,-1.168 -4.031,-0.997 -6.886,0.409 -1.96,0.972 -3.81,2.523 -4.798,4.611"
             style="fill:none;stroke:#231f20;stroke-width:1;stroke-linecap:round;stroke-linejoin:round;stroke-miterlimit:10;stroke-dasharray:none;stroke-opacity:1"
             id="path188" /></g><g
           id="g190"
           transform="translate(208.7744,199.314)"><path
             d="m 0,0 c 0,0 -0.545,-7.866 8.361,-10.696 0.426,-0.136 0.886,-0.264 1.363,-0.375 0,0 -0.613,4.432 -0.315,4.287"
             style="fill:none;stroke:#231f20;stroke-width:1;stroke-linecap:round;stroke-linejoin:round;stroke-miterlimit:10;stroke-dasharray:none;stroke-opacity:1"
             id="path192" /></g></g></g></g></svg>
